# xmcd CD database file
#
# Track frame offsets:
#	150
#	13225
#	26922
#	39840
#	52315
#	62185
#	75215
#	88410
#	101167
#	114502
#	127310
#	138037
#	153075
#	167475
#	181617
#	197362
#	211775
#	226030
#	241725
#	259882
#	278687
#	296095
#	308610
#	323690
#	337872
#
# Disc length: 4693 seconds
#
# Revision: 1
# Processed by: cddbd v1.5.2PL0 Copyright (c) Steve Scherf et al.
# Submitted via: CDex 1.51
#
DISCID=4c125319
DTITLE=Various Artist - Curtom Chartbusters CD1
DYEAR=1999
DGENRE=Soul/R&B
TTITLE0=The Five Stairsteps - You Waited Too Long
TTITLE1=The Five Stairsteps - World Of Fantasy
TTITLE2=The Five Stairsteps - Come Back
TTITLE3=The Five Stairsteps - Danger! She's A Stranger
TTITLE4=The Fascinations - Girls Are Out To Get You
TTITLE5=The Five Stairsteps - Don't Change Your Love
TTITLE6=The Impressions - Fool For You
TTITLE7=The Impressions - This Is My Country
TTITLE8=The Five Stairsteps and Cubie - Baby Make 
TTITLE9=The Impressions - My Deceiving Heart
TTITLE10=The Impressions - Seven Years
TTITLE11=The Impressions - Choice Of Colors
TTITLE12=The Five Stairsteps and Cubie - We Must Be In Love
TTITLE13=The Impressions - Say You Love Me
TTITLE14=The Impressions - Check Out Your Mind
TTITLE15=Major Lance - Stay Away From Me (I Love You Too Much)
TTITLE16=The Impressions - (Baby) Turn On To Me
TTITLE17=Curtis Mayfield - (Don't Worry) If There's A Hell Below We're All Gonna Go
TTITLE18=The Impressions - Ain't Got Time
TTITLE19=The Impressions - Love Me
TTITLE20=Curtis Mayfield - Get Down
TTITLE21=Curtis Mayfield - Move On Up
TTITLE22=Curtis Mayfield - Freddie's Dead
TTITLE23=Curtis Mayfield - Superfly
TTITLE24=The Impressions - Finally Got Myself Together (I'm A Changed Man)
EXTD=YEAR: 1999
EXTT0=
EXTT1=
EXTT2=
EXTT3=
EXTT4=
EXTT5=
EXTT6=
EXTT7=
EXTT8=
EXTT9=
EXTT10=
EXTT11=
EXTT12=
EXTT13=
EXTT14=
EXTT15=
EXTT16=
EXTT17=
EXTT18=
EXTT19=
EXTT20=
EXTT21=
EXTT22=
EXTT23=
EXTT24=
PLAYORDER=
